<?xml version="1.0" encoding="utf-8"?>
<!-- Generator: Adobe Illustrator 19.2.1, SVG Export Plug-In . SVG Version: 6.00 Build 0)  -->
<svg version="1.1" id="Слой_1" xmlns="http://www.w3.org/2000/svg" xmlns:xlink="http://www.w3.org/1999/xlink" x="0px" y="0px"
	 viewBox="0 0 32 32" style="enable-background:new 0 0 32 32;" xml:space="preserve">
<style type="text/css">
	.st0{fill:#F15D66;}
	.st1{opacity:0.2;}
	.st2{fill:#231F20;}
	.st3{fill:#FFFFFF;}
	.st4{fill:#324B5B;}
</style>
<g id="Layer_1">
	<g>
		<circle class="st0" cx="16" cy="16" r="16"/>
	</g>
	<g class="st1">
		<path class="st2" d="M22.6,21.4c0,0.8-0.6,1.4-1.4,1.4h-8.6c-0.8,0-1.4-0.6-1.4-1.4V10c0-0.8,0.6-1.4,1.4-1.4h8.6
			c0.8,0,1.4,0.6,1.4,1.4V21.4z"/>
	</g>
	<g>
		<path class="st3" d="M22.6,20.7c0,0.8-0.6,1.4-1.4,1.4h-8.6c-0.8,0-1.4-0.6-1.4-1.4V9.3c0-0.8,0.6-1.4,1.4-1.4h8.6
			c0.8,0,1.4,0.6,1.4,1.4V20.7z"/>
	</g>
	<g class="st1">
		<g>
			<path class="st2" d="M17.9,8.6v2.8c0,0.1,0.1,0.2,0.1,0.2c0,0,0.1,0,0.1,0c0.1,0,0.1,0,0.2-0.1l1-1l1,1c0,0,0.1,0.1,0.2,0.1
				c0,0,0.1,0,0.1,0c0.1,0,0.1-0.1,0.1-0.2V8.6H17.9z"/>
		</g>
	</g>
	<g>
		<g>
			<path class="st4" d="M17.9,7.9v2.8c0,0.1,0.1,0.2,0.1,0.2c0,0,0.1,0,0.1,0c0.1,0,0.1,0,0.2-0.1l1-1l1,1c0,0,0.1,0.1,0.2,0.1
				c0,0,0.1,0,0.1,0c0.1,0,0.1-0.1,0.1-0.2V7.9H17.9z"/>
		</g>
	</g>
	<g>
		<rect x="12.6" y="7.9" class="st4" width="1.1" height="14.3"/>
	</g>
</g>
<g id="Layer_2">
</g>
</svg>
