<?xml version="1.0" encoding="utf-8"?>
<!-- Generator: Adobe Illustrator 19.2.1, SVG Export Plug-In . SVG Version: 6.00 Build 0)  -->
<svg version="1.1" id="Слой_1" xmlns="http://www.w3.org/2000/svg" xmlns:xlink="http://www.w3.org/1999/xlink" x="0px" y="0px"
	 viewBox="0 0 64 64" style="enable-background:new 0 0 64 64;" xml:space="preserve">
<style type="text/css">
	.st0{fill:#F15D66;}
	.st1{opacity:0.2;}
	.st2{fill:#231F20;}
	.st3{fill:#E0995E;}
	.st4{fill:#FFFFFF;}
	.st5{fill:#E0E0D1;}
	.st6{fill:#4F5D73;}
</style>
<g id="Layer_1">
	<g>
		<circle class="st0" cx="32" cy="32" r="32"/>
	</g>
	<g class="st1">
		<path class="st2" d="M42,20.8H22c-1.4,0-2.5,1.1-2.5,2.5v3.4v16.6c0,1.4,1.1,2.5,2.5,2.5h20c1.4,0,2.5-1.1,2.5-2.5V26.7v-3.4
			C44.5,21.9,43.4,20.8,42,20.8z"/>
	</g>
	<g>
		<path class="st3" d="M42,19.5H22c-1.4,0-2.5,1.1-2.5,2.5v3.4V42c0,1.4,1.1,2.5,2.5,2.5h20c1.4,0,2.5-1.1,2.5-2.5V25.4V22
			C44.5,20.6,43.4,19.5,42,19.5z"/>
	</g>
	<g class="st1">
		<rect x="22" y="23.3" class="st2" width="20" height="20"/>
	</g>
	<g>
		<rect x="22" y="22" class="st4" width="20" height="20"/>
	</g>
	<g>
		<rect x="25.8" y="27" class="st5" width="12.5" height="1.3"/>
	</g>
	<g>
		<rect x="25.8" y="29.5" class="st5" width="12.5" height="1.3"/>
	</g>
	<g>
		<rect x="25.8" y="32" class="st5" width="12.5" height="1.3"/>
	</g>
	<g>
		<rect x="25.8" y="34.5" class="st5" width="12.5" height="1.3"/>
	</g>
	<g>
		<rect x="25.8" y="37" class="st5" width="12.5" height="1.3"/>
	</g>
	<g class="st1">
		<path class="st2" d="M35.1,19.5h-6.3H27v1.9V22v0.6c0,1,0.8,1.9,1.9,1.9h6.3c1,0,1.9-0.8,1.9-1.9V22v-0.6v-1.9H35.1z"/>
	</g>
	<g>
		<path class="st6" d="M35.1,18.3h-6.3H27v1.9v0.6v0.6c0,1,0.8,1.9,1.9,1.9h6.3c1,0,1.9-0.8,1.9-1.9v-0.6v-0.6v-1.9H35.1z"/>
	</g>
</g>
<g id="Layer_2">
</g>
</svg>
