<?xml version="1.0" encoding="utf-8"?>
<!-- Generator: Adobe Illustrator 19.2.1, SVG Export Plug-In . SVG Version: 6.00 Build 0)  -->
<svg version="1.1" id="Слой_1" xmlns="http://www.w3.org/2000/svg" xmlns:xlink="http://www.w3.org/1999/xlink" x="0px" y="0px"
	 viewBox="0 0 32 32" style="enable-background:new 0 0 32 32;" xml:space="preserve">
<style type="text/css">
	.st0{fill:#F15D66;}
	.st1{opacity:0.2;}
	.st2{fill:#231F20;}
	.st3{fill:#98A4AD;}
	.st4{fill:#FFFFFF;}
</style>
<g>
	<circle class="st0" cx="16.1" cy="16" r="16"/>
</g>
<g class="st1">
	<g>
		<g>
			<path class="st2" d="M18.6,11.7v-1.3c0,0.3-1.4,1.1-1.8,1.4c0.2-0.1,0.3-0.2,0.5-0.2H18.6z"/>
		</g>
	</g>
	<g>
		<path class="st2" d="M18.6,10.4c0-0.1-0.1-0.1-0.3-0.1h-4.8h-0.3h-1v1v4.9v1h1h0.3h2.8v-4.5c0-0.1,0-0.2,0-0.2
			c0.1-0.2,0.2-0.4,0.3-0.6C16.9,11.8,18.6,10.7,18.6,10.4z"/>
	</g>
</g>
<g>
	<g>
		<g>
			<path class="st3" d="M18.6,11V9.7c0,0.3-1.4,1.1-1.8,1.4C17,11,17.2,11,17.4,11H18.6z"/>
		</g>
	</g>
	<g>
		<path class="st4" d="M18.6,9.7c0-0.1-0.1-0.1-0.3-0.1h-4.8h-0.3h-1v1v4.9v1h1h0.3h2.8V12c0-0.1,0-0.2,0-0.2
			c0.1-0.2,0.2-0.4,0.3-0.6C16.9,11.1,18.6,10.1,18.6,9.7z"/>
	</g>
</g>
<g class="st1">
	<path class="st2" d="M22.3,11h-3.6v-0.3H17c-0.6,0-1,0.5-1,1v5.6v0.3c0,0.6,0.5,1,1,1h5.2c0.6,0,1-0.5,1-1V12
		C23.3,11.4,22.8,11,22.3,11z"/>
</g>
<g>
	<path class="st4" d="M22.3,11h-3.1h-1.7c-0.6,0-1,0.5-1,1v4.5v0.3c0,0.6,0.5,1,1,1h4.9c0.6,0,1-0.5,1-1V12
		C23.3,11.4,22.8,11,22.3,11z"/>
</g>
<g class="st1">
	<path class="st2" d="M12.2,22.1c0,0.4-0.3,0.7-0.7,0.7l0,0c-0.4,0-0.7-0.3-0.7-0.7V10.3c0-0.4,0.3-0.7,0.7-0.7l0,0
		c0.4,0,0.7,0.3,0.7,0.7V22.1z"/>
</g>
<g>
	<path class="st4" d="M12.2,21.4c0,0.4-0.3,0.7-0.7,0.7l0,0c-0.4,0-0.7-0.3-0.7-0.7V9.6c0-0.4,0.3-0.7,0.7-0.7l0,0
		c0.4,0,0.7,0.3,0.7,0.7V21.4z"/>
</g>
<g class="st1">
	<circle class="st2" cx="11.5" cy="9.9" r="1"/>
</g>
<g>
	<circle class="st4" cx="11.5" cy="9.2" r="1"/>
</g>
</svg>
