<?xml version="1.0" encoding="utf-8"?>
<!-- Generator: Adobe Illustrator 19.2.1, SVG Export Plug-In . SVG Version: 6.00 Build 0)  -->
<svg version="1.1" id="Layer_1" xmlns="http://www.w3.org/2000/svg" xmlns:xlink="http://www.w3.org/1999/xlink" x="0px" y="0px"
	 viewBox="0 0 64 64" style="enable-background:new 0 0 64 64;" xml:space="preserve">
<style type="text/css">
	.st0{fill:#F15D66;}
	.st1{opacity:0.2;}
	.st2{fill:#231F20;}
	.st3{fill:#FFFFFF;stroke:#FFFFFF;stroke-width:3;stroke-linecap:round;stroke-linejoin:round;stroke-miterlimit:10;}
</style>
<circle class="st0" cx="32" cy="32" r="32"/>
<g class="st1">
	<polygon class="st2" points="32,23.1 23.3,42.7 32,38.3 40.7,42.7 	"/>
	<path class="st2" d="M40.7,43.5c-0.1,0-0.2,0-0.4-0.1L32,39.2l-8.3,4.2c-0.3,0.2-0.7,0.1-0.9-0.1c-0.2-0.2-0.3-0.6-0.2-0.9
		l8.7-19.5c0.1-0.3,0.4-0.5,0.7-0.5c0.3,0,0.6,0.2,0.7,0.5l8.7,19.5c0.1,0.3,0.1,0.7-0.2,0.9C41.1,43.4,40.9,43.5,40.7,43.5z
		 M32,37.5c0.1,0,0.2,0,0.4,0.1l6.7,3.3l-7-15.8l-7,15.8l6.7-3.3C31.7,37.5,31.9,37.5,32,37.5z"/>
</g>
<polygon class="st3" points="32,22 23.5,41.2 32,36.9 40.5,41.2 "/>
</svg>
